# xmcd
#
# Track frame offsets:
# 150
# 13921
# 25484
# 35978
# 47273
# 58338
# 70517
# 79276
# 90564
# 101907
# 112993
# 126956
# 137843
# 151760
# 163462
# 174764
# 185947
# 202351
# 211100
# 221343
# 233435
# 244127
# 255752
# 265507
# 278104
# 290113
# 302066
# 314026
#
# Disc length: 4382 seconds
#
#
# Revision: 0
# Processed by: cddbd v1.5.1PL0 Copyright (c) Steve Scherf et al.
# Submitted via: FreeRIP 2.942 
#
DISCID=9f111c1c
DTITLE=SOUNDS IN MY FRONTROOM 
DYEAR=1900
DGENRE=
TTITLE0=The Four Tracks - Like My Love for You
TTITLE1=The Montclairs - Hey You
TTITLE2=The Four Voices - Your Love Is Getting Stronger
TTITLE3=Forson and Scott - Sweet Lover
TTITLE4=Tony Daniels - I Won't Cry
TTITLE5=Kenny Wells - Isn't It A Shame
TTITLE6=Big Joe Turner - Two Loves I Have
TTITLE7=Cody Black  - It's Our Time To Fall In Love
TTITLE8=The Themes - Bent Out A Shape
TTITLE9=The Seven Souls - I Still Love You
TTITLE10=The Dells - Run For Cover
TTITLE11=The Yum Yums - Gonna Be AbIG t HING
TTITLE12=Guitar Ray - Your Gonna Wreck My Life
TTITLE13=Jock Mitchell - Not A chance In A Million
TTITLE14=Carol Anderson - Taking My Mind Off Love
TTITLE15=Yvonne Vaughn - When You Gonna Tell Her About Me
TTITLE16=Millionaires - And The Rain Came
TTITLE17=Karmello Brooks - Tell Me Baby
TTITLE18=Kenny Gamble and The Romeos - Ain't It Bbay
TTITLE19=The Kayettes feat Ernestine Eady - Let's Tlak It Over
TTITLE20=Bobby B land - These Hands
TTITLE21=Gerrie Grainger - Castle In The Sky
TTITLE22=The Opals - I'm So Afraid
TTITLE23=The Mellow Fellowa - My Baby Needs Me
TTITLE24=Ralph Grahan - She Just Sit's There
TTITLE25=Inensions - Don't Forget That I Love You
TTITLE26=Reggie Alexander - It's Better
TTITLE27=Jimmy Bo Horne - I Just an't Speak
EXTD=
EXTT0=
EXTT1=
EXTT2=
EXTT3=
EXTT4=
EXTT5=
EXTT6=
EXTT7=
EXTT8=
EXTT9=
EXTT10=
EXTT11=
EXTT12=
EXTT13=
EXTT14=
EXTT15=
EXTT16=
EXTT17=
EXTT18=
EXTT19=
EXTT20=
EXTT21=
EXTT22=
EXTT23=
EXTT24=
EXTT25=
EXTT26=
EXTT27=
PLAYORDER=
